<?xml version="1.0" encoding="utf-8"?>
<!-- Generated by Mocodo 4.3.2 -->
<svg width="651" height="873" viewBox="0 0 651 873" xmlns="http://www.w3.org/2000/svg">
<rect x="0" y="0" width="651" height="873" fill="none" stroke="none" stroke-width="0"/>

<!-- Association BIBLIOTHEQUE -->
<g>
	<line x1="148" y1="135" x2="413" y2="135" stroke="#726f83" stroke-width="1.5"/>
	<line x1="413" y1="387" x2="413" y2="135" stroke="#726f83" stroke-width="1.5"/>
	<g>
		<path d="M492 80 a14 14 90 0 1 14 14 V107 h-186 V94 a14 14 90 0 1 14 -14" fill="#b2bba4" stroke="#b2bba4" stroke-width="0"/>
		<path d="M506 107 v69 a14 14 90 0 1 -14 14 H334 a14 14 90 0 1 -14 -14 V107 H186" fill="#ccd6ba" stroke="#ccd6ba" stroke-width="0"/>
		<rect x="320" y="80" width="186" height="110" fill="none" rx="14" stroke="#85956b" stroke-width="3"/>
		<line x1="320" y1="107" x2="506" y2="107" stroke="#85956b" stroke-width="1.5"/>
		<text x="358" y="100.3" fill="#27360c" font-family="Arial Black" font-size="13">BIBLIOTHEQUE</text>
		<text x="329" y="125.2" fill="#607734" font-family="Arial" font-size="14">statut enum</text>
		<text x="329" y="143.2" fill="#607734" font-family="Arial" font-size="14">episodesVus int</text>
		<text x="329" y="161.2" fill="#607734" font-family="Arial" font-size="14">dateAjout datetime</text>
		<text x="329" y="179.2" fill="#607734" font-family="Arial" font-size="14">dateModification datetime</text>
	</g>
	<text x="293" y="152" fill="#726f83" font-family="Arial" font-size="12">0,N</text>
	<text x="419" y="207" fill="#726f83" font-family="Arial" font-size="12">0,N</text>
</g>

<!-- Association AVIS -->
<g>
	<line x1="148" y1="135" x2="148" y2="387" stroke="#726f83" stroke-width="1.5"/>
	<line x1="413" y1="387" x2="148" y2="387" stroke="#726f83" stroke-width="1.5"/>
	<g>
		<path d="M207 332 a14 14 90 0 1 14 14 V359 h-146 V346 a14 14 90 0 1 14 -14" fill="#b2bba4" stroke="#b2bba4" stroke-width="0"/>
		<path d="M221 359 v69 a14 14 90 0 1 -14 14 H89 a14 14 90 0 1 -14 -14 V359 H146" fill="#ccd6ba" stroke="#ccd6ba" stroke-width="0"/>
		<rect x="75" y="332" width="146" height="110" fill="none" rx="14" stroke="#85956b" stroke-width="3"/>
		<line x1="75" y1="359" x2="221" y2="359" stroke="#85956b" stroke-width="1.5"/>
		<text x="130" y="352.3" fill="#27360c" font-family="Arial Black" font-size="13">AVIS</text>
		<text x="84" y="377.2" fill="#607734" font-family="Arial" font-size="14">note int</text>
		<text x="84" y="395.2" fill="#607734" font-family="Arial" font-size="14">commentaire text</text>
		<text x="84" y="413.2" fill="#607734" font-family="Arial" font-size="14">createdAt datetime</text>
		<text x="84" y="431.2" fill="#607734" font-family="Arial" font-size="14">updatedAt datetime</text>
	</g>
	<text x="154" y="278" fill="#726f83" font-family="Arial" font-size="12">0,1</text>
	<text x="302" y="404" fill="#726f83" font-family="Arial" font-size="12">0,N</text>
</g>

<!-- Association APPARTIENT -->
<g>
	<line x1="413" y1="387" x2="586" y2="387" stroke="#726f83" stroke-width="1.5"/>
	<line x1="586" y1="135" x2="586" y2="387" stroke="#726f83" stroke-width="1.5"/>
	<g>
		<path d="M628 359 a14 14 90 0 1 14 14 V386 h-112 V373 a14 14 90 0 1 14 -14" fill="#b2bba4" stroke="#b2bba4" stroke-width="0"/>
		<path d="M642 386 v15 a14 14 90 0 1 -14 14 H544 a14 14 90 0 1 -14 -14 V386 H112" fill="#ccd6ba" stroke="#ccd6ba" stroke-width="0"/>
		<rect x="530" y="359" width="112" height="56" fill="none" rx="14" stroke="#85956b" stroke-width="3"/>
		<line x1="530" y1="386" x2="642" y2="386" stroke="#85956b" stroke-width="1.5"/>
		<text x="539" y="379.3" fill="#27360c" font-family="Arial Black" font-size="13">APPARTIENT</text>
	</g>
	<text x="503" y="404" fill="#726f83" font-family="Arial" font-size="12">0,N</text>
	<text x="592" y="188" fill="#726f83" font-family="Arial" font-size="12">0,N</text>
</g>

<!-- Association COMPREND -->
<g>
	<line x1="413" y1="387" x2="413" y2="612" stroke="#726f83" stroke-width="1.5"/>
	<line x1="413" y1="765" x2="413" y2="612" stroke="#726f83" stroke-width="1.5"/>
	<g>
		<path d="M450 584 a14 14 90 0 1 14 14 V611 h-102 V598 a14 14 90 0 1 14 -14" fill="#b2bba4" stroke="#b2bba4" stroke-width="0"/>
		<path d="M464 611 v15 a14 14 90 0 1 -14 14 H376 a14 14 90 0 1 -14 -14 V611 H102" fill="#ccd6ba" stroke="#ccd6ba" stroke-width="0"/>
		<rect x="362" y="584" width="102" height="56" fill="none" rx="14" stroke="#85956b" stroke-width="3"/>
		<line x1="362" y1="611" x2="464" y2="611" stroke="#85956b" stroke-width="1.5"/>
		<text x="371" y="604.3" fill="#27360c" font-family="Arial Black" font-size="13">COMPREND</text>
	</g>
	<text x="419" y="575" fill="#726f83" font-family="Arial" font-size="12">1,N</text>
	<text x="419" y="657" fill="#726f83" font-family="Arial" font-size="12">1,1</text>
</g>

<!-- Entity USER -->
<g>
	<g>
		<rect x="9" y="9" width="278" height="28" fill="#97b8ff" stroke="none" stroke-width="0" opacity="1"/>
		<rect x="9" y="37" width="278" height="224" fill="#c0d4ff" stroke="none" stroke-width="0" opacity="1"/>
		<rect x="9" y="9" width="278" height="252" fill="none" stroke="#578dff" stroke-width="3" opacity="1"/>
		<line x1="9" y1="37" x2="287" y2="37" stroke="#578dff" stroke-width="1.5"/>
	</g>
	<text x="128" y="29.3" fill="#131114" font-family="Arial Black" font-size="13">USER</text>
	<text x="17" y="53.2" fill="#3e3c42" font-family="Arial" font-size="14">id UUID PK</text>
	<line x1="17" y1="56" x2="93" y2="56" stroke="#3e3c42" stroke-width="1.2"/>
	<text x="17" y="71.2" fill="#3e3c42" font-family="Arial" font-size="14">username UK</text>
	<text x="17" y="89.2" fill="#3e3c42" font-family="Arial" font-size="14">email UK</text>
	<text x="17" y="107.2" fill="#3e3c42" font-family="Arial" font-size="14">password hash</text>
	<text x="17" y="125.2" fill="#3e3c42" font-family="Arial" font-size="14">role enum</text>
	<text x="17" y="143.2" fill="#3e3c42" font-family="Arial" font-size="14">isSuperAdmin bool</text>
	<text x="17" y="161.2" fill="#3e3c42" font-family="Arial" font-size="14">emailVerified bool</text>
	<text x="17" y="179.2" fill="#3e3c42" font-family="Arial" font-size="14">avatar nullable</text>
	<text x="17" y="197.2" fill="#3e3c42" font-family="Arial" font-size="14">dateInscription datetime</text>
	<text x="17" y="215.2" fill="#3e3c42" font-family="Arial" font-size="14">emailVerificationToken nullable</text>
	<text x="17" y="233.2" fill="#3e3c42" font-family="Arial" font-size="14">resetPasswordToken nullable</text>
	<text x="17" y="251.2" fill="#3e3c42" font-family="Arial" font-size="14">resetPasswordExpires datetime nullable</text>
</g>

<!-- Entity GENRE -->
<g>
	<g>
		<rect x="547" y="99" width="78" height="28" fill="#97b8ff" stroke="none" stroke-width="0" opacity="1"/>
		<rect x="547" y="127" width="78" height="44" fill="#c0d4ff" stroke="none" stroke-width="0" opacity="1"/>
		<rect x="547" y="99" width="78" height="72" fill="none" stroke="#578dff" stroke-width="3" opacity="1"/>
		<line x1="547" y1="127" x2="625" y2="127" stroke="#578dff" stroke-width="1.5"/>
	</g>
	<text x="560" y="119.3" fill="#131114" font-family="Arial Black" font-size="13">GENRE</text>
	<text x="555" y="143.2" fill="#3e3c42" font-family="Arial" font-size="14">id PK</text>
	<line x1="555" y1="146" x2="591" y2="146" stroke="#3e3c42" stroke-width="1.2"/>
	<text x="555" y="161.2" fill="#3e3c42" font-family="Arial" font-size="14">name UK</text>
</g>

<!-- Entity ANIME -->
<g>
	<g>
		<rect x="329" y="216" width="168" height="28" fill="#97b8ff" stroke="none" stroke-width="0" opacity="1"/>
		<rect x="329" y="244" width="168" height="314" fill="#c0d4ff" stroke="none" stroke-width="0" opacity="1"/>
		<rect x="329" y="216" width="168" height="342" fill="none" stroke="#578dff" stroke-width="3" opacity="1"/>
		<line x1="329" y1="244" x2="497" y2="244" stroke="#578dff" stroke-width="1.5"/>
	</g>
	<text x="389" y="236.3" fill="#131114" font-family="Arial Black" font-size="13">ANIME</text>
	<text x="337" y="260.2" fill="#3e3c42" font-family="Arial" font-size="14">id PK</text>
	<line x1="337" y1="263" x2="373" y2="263" stroke="#3e3c42" stroke-width="1.2"/>
	<text x="337" y="278.2" fill="#3e3c42" font-family="Arial" font-size="14">malId UK</text>
	<text x="337" y="296.2" fill="#3e3c42" font-family="Arial" font-size="14">title</text>
	<text x="337" y="314.2" fill="#3e3c42" font-family="Arial" font-size="14">titleEnglish nullable</text>
	<text x="337" y="332.2" fill="#3e3c42" font-family="Arial" font-size="14">titleJapanese nullable</text>
	<text x="337" y="350.2" fill="#3e3c42" font-family="Arial" font-size="14">type</text>
	<text x="337" y="368.2" fill="#3e3c42" font-family="Arial" font-size="14">episodes nullable</text>
	<text x="337" y="386.2" fill="#3e3c42" font-family="Arial" font-size="14">status</text>
	<text x="337" y="404.2" fill="#3e3c42" font-family="Arial" font-size="14">aired JSON</text>
	<text x="337" y="422.2" fill="#3e3c42" font-family="Arial" font-size="14">synopsis text</text>
	<text x="337" y="440.2" fill="#3e3c42" font-family="Arial" font-size="14">imageUrl</text>
	<text x="337" y="458.2" fill="#3e3c42" font-family="Arial" font-size="14">score float nullable</text>
	<text x="337" y="476.2" fill="#3e3c42" font-family="Arial" font-size="14">year nullable</text>
	<text x="337" y="494.2" fill="#3e3c42" font-family="Arial" font-size="14">season nullable</text>
	<text x="337" y="512.2" fill="#3e3c42" font-family="Arial" font-size="14">studios JSON</text>
	<text x="337" y="530.2" fill="#3e3c42" font-family="Arial" font-size="14">verifie bool</text>
	<text x="337" y="548.2" fill="#3e3c42" font-family="Arial" font-size="14">statutModeration enum</text>
</g>

<!-- Entity CONTACT_MESSAGE -->
<g>
	<g>
		<rect x="65" y="531" width="166" height="28" fill="#97b8ff" stroke="none" stroke-width="0" opacity="1"/>
		<rect x="65" y="559" width="166" height="134" fill="#c0d4ff" stroke="none" stroke-width="0" opacity="1"/>
		<rect x="65" y="531" width="166" height="162" fill="none" stroke="#578dff" stroke-width="3" opacity="1"/>
		<line x1="65" y1="559" x2="231" y2="559" stroke="#578dff" stroke-width="1.5"/>
	</g>
	<text x="74" y="551.3" fill="#131114" font-family="Arial Black" font-size="13">CONTACT_MESSAGE</text>
	<text x="73" y="575.2" fill="#3e3c42" font-family="Arial" font-size="14">id PK</text>
	<line x1="73" y1="578" x2="109" y2="578" stroke="#3e3c42" stroke-width="1.2"/>
	<text x="73" y="593.2" fill="#3e3c42" font-family="Arial" font-size="14">nom</text>
	<text x="73" y="611.2" fill="#3e3c42" font-family="Arial" font-size="14">email</text>
	<text x="73" y="629.2" fill="#3e3c42" font-family="Arial" font-size="14">sujet</text>
	<text x="73" y="647.2" fill="#3e3c42" font-family="Arial" font-size="14">message text</text>
	<text x="73" y="665.2" fill="#3e3c42" font-family="Arial" font-size="14">dateEnvoi datetime</text>
	<text x="73" y="683.2" fill="#3e3c42" font-family="Arial" font-size="14">traite bool</text>
</g>

<!-- Entity SAISON -->
<g>
	<g>
		<rect x="312" y="666" width="202" height="28" fill="#97b8ff" stroke="none" stroke-width="0" opacity="1"/>
		<rect x="312" y="694" width="202" height="170" fill="#c0d4ff" stroke="none" stroke-width="0" opacity="1"/>
		<rect x="312" y="666" width="202" height="198" fill="none" stroke="#578dff" stroke-width="3" opacity="1"/>
		<line x1="312" y1="694" x2="514" y2="694" stroke="#578dff" stroke-width="1.5"/>
	</g>
	<text x="385" y="686.3" fill="#131114" font-family="Arial Black" font-size="13">SAISON</text>
	<text x="320" y="710.2" fill="#3e3c42" font-family="Arial" font-size="14">id PK</text>
	<line x1="320" y1="713" x2="356" y2="713" stroke="#3e3c42" stroke-width="1.2"/>
	<text x="320" y="728.2" fill="#3e3c42" font-family="Arial" font-size="14">animeId FK</text>
	<text x="320" y="746.2" fill="#3e3c42" font-family="Arial" font-size="14">numeroSaison</text>
	<text x="320" y="764.2" fill="#3e3c42" font-family="Arial" font-size="14">titreSaison</text>
	<text x="320" y="782.2" fill="#3e3c42" font-family="Arial" font-size="14">episodesSaison</text>
	<text x="320" y="800.2" fill="#3e3c42" font-family="Arial" font-size="14">dateDiffusion nullable</text>
	<text x="320" y="818.2" fill="#3e3c42" font-family="Arial" font-size="14">imageUrlSaison nullable</text>
	<text x="320" y="836.2" fill="#3e3c42" font-family="Arial" font-size="14">synopsisSaison text nullable</text>
	<text x="320" y="854.2" fill="#3e3c42" font-family="Arial" font-size="14">statutSaison enum</text>
</g>
</svg>